<svg version="1.1" id="Layer_1" xmlns="http://www.w3.org/2000/svg" xmlns:xlink="http://www.w3.org/1999/xlink" x="0px" y="0px"
	 width="100%" viewBox="0 0 500 500" enable-background="new 0 0 500 500" xml:space="preserve">
<path fill="#195FF8" opacity="1.000000" stroke="none" 
	d="
M158.969421,246.146179 
	C158.969406,246.146179 158.946854,246.416626 158.602814,246.734009 
	C153.834396,251.892487 149.011063,256.436676 145.115311,261.671143 
	C142.144699,265.662567 140.350143,270.529236 138.032394,275.006531 
	C138.032394,275.006531 138.018356,275.011902 137.796967,275.128052 
	C137.301926,275.447021 137.119980,275.712616 137.029694,276.041046 
	C137.029694,276.041046 137.012253,275.996857 136.685547,276.094543 
	C134.900604,279.460480 133.442383,282.728668 131.984131,285.996857 
	C131.984131,285.996857 131.994751,285.995850 131.666656,286.085876 
	C128.901413,290.786652 126.464264,295.397369 124.027115,300.008087 
	C124.027107,300.008087 124.012146,300.008209 123.681747,300.109375 
	C122.230980,302.480255 121.110619,304.749939 119.990250,307.019653 
	C119.990257,307.019653 119.985977,306.980225 119.653397,307.062622 
	C118.297485,308.569794 116.770096,309.854309 116.328606,311.440948 
	C111.810242,327.678955 107.372742,343.941254 103.141083,360.256012 
	C102.023178,364.566010 101.473297,369.059509 101.054878,373.505676 
	C100.529373,379.089630 100.319305,384.709747 100.203468,390.319000 
	C100.185440,391.191986 101.392532,392.090210 102.033096,392.976776 
	C102.033096,392.976776 102.001221,393.000000 101.984978,393.385010 
	C102.655098,395.514374 103.341461,397.258728 104.027817,399.003082 
	C104.027817,399.003082 103.989166,399.009094 103.974823,399.385437 
	C104.238152,401.529724 104.515831,403.297729 104.793503,405.065704 
	C104.793503,405.065704 104.926514,405.465912 105.081223,405.906738 
	C105.501099,406.567413 105.766266,406.787292 106.031425,407.007141 
	C106.031425,407.007141 105.986565,407.012756 105.967850,407.376495 
	C105.772102,412.183075 104.350136,414.723907 99.381866,412.202301 
	C98.726074,411.869476 97.791924,412.085114 96.986694,412.046753 
	C96.986694,412.046753 96.976120,412.032593 96.868515,411.801270 
	C96.562408,411.288818 96.297005,411.103455 95.964684,411.013947 
	C95.964684,411.013947 96.001152,410.998260 95.942535,410.645569 
	C95.256569,409.597107 94.759811,408.640594 93.979652,408.249939 
	C90.238960,406.376770 86.385597,404.728577 82.644638,402.855865 
	C80.318359,401.691345 78.120979,400.269318 75.865753,398.962860 
	C75.554459,398.950897 75.315613,398.813232 74.974380,398.018280 
	C70.171165,394.333374 65.542801,391.180054 60.914444,388.026703 
	C60.914448,388.026703 60.979908,388.018280 60.869598,387.732605 
	C58.824318,385.645264 56.889343,383.843628 54.954369,382.041962 
	C54.954369,382.041962 54.979755,381.998779 54.870819,381.797058 
	C54.565071,381.315887 54.303341,381.125885 53.976688,381.025330 
	C53.976688,381.025330 53.990383,381.002472 53.975235,380.650299 
	C53.590523,379.397797 53.450153,378.265991 52.813370,377.635590 
	C49.263161,374.121033 46.156864,370.407867 45.424973,365.209412 
	C45.359428,364.743896 44.483932,364.392395 43.984596,363.987946 
	C43.984596,363.987946 44.015858,363.984833 44.006264,363.610352 
	C41.722214,357.831696 39.447762,352.427582 37.173306,347.023438 
	C36.780582,343.633911 36.013035,340.238373 36.067059,336.855988 
	C36.215347,327.572174 36.241642,318.244171 37.220963,309.029877 
	C37.936852,302.294250 39.380081,295.447357 41.744656,289.115173 
	C46.535343,276.286041 51.630585,263.510376 57.600754,251.197769 
	C64.476364,237.017792 72.284836,223.295181 82.528381,211.107407 
	C89.266724,203.090118 95.734520,194.831802 102.013390,186.449173 
	C104.293365,183.405273 105.525093,179.599060 107.492584,176.293915 
	C113.116112,166.847122 118.747627,157.399734 124.662445,148.135437 
	C126.146751,145.810577 128.707306,144.172836 130.909698,142.090286 
	C130.403534,141.690491 129.362350,140.868118 127.717560,139.568985 
	C130.200165,138.575989 132.321198,137.727600 134.442215,136.879227 
	C134.111984,136.690002 133.781769,136.500778 133.451538,136.311554 
	C134.201019,134.316528 134.658691,132.142899 135.751312,130.357925 
	C140.100372,123.252899 146.331024,116.764297 148.590240,109.084145 
	C150.408966,102.901382 153.564148,96.886726 154.066818,90.350349 
	C154.608124,83.311455 152.980698,76.784470 147.652664,71.599297 
	C146.959457,70.924683 146.753769,69.749100 146.193329,68.523636 
	C149.536987,69.445541 152.379410,70.814545 155.266647,70.916702 
	C164.296539,71.236168 171.222031,76.011818 178.244202,80.805260 
	C179.696365,81.796524 181.453201,82.349434 183.086441,83.066055 
	C191.482956,86.750229 196.911560,93.546135 201.717667,100.948242 
	C203.272980,103.343651 204.344955,106.059700 205.960342,108.407272 
	C207.395218,110.492508 209.276505,112.270546 210.918686,114.908348 
	C209.341492,119.267921 203.582703,122.362221 209.761169,126.655190 
	C205.076126,130.698929 205.009491,131.744904 208.842255,136.130615 
	C208.842255,136.130615 208.951004,136.522186 208.915100,137.094696 
	C207.621887,144.098419 204.632385,149.413910 198.989838,153.020538 
	C198.989838,153.020538 198.983505,152.983170 198.642197,153.017288 
	C197.139664,154.333725 195.546051,155.432404 194.907196,156.936600 
	C193.575455,160.072174 192.748566,163.422150 191.481644,166.870743 
	C191.157974,168.015488 191.066895,168.973557 190.975815,169.931610 
	C191.750946,169.711151 192.526062,169.490677 193.623840,169.184357 
	C194.954285,167.710526 195.962082,166.322556 196.969879,164.934601 
	C196.969879,164.934601 196.994644,164.997025 197.282898,165.035431 
	C198.117798,165.583084 199.227036,166.321686 199.126923,166.567230 
	C197.579926,170.361511 196.135162,174.236588 194.144257,177.801132 
	C191.506561,182.523636 188.146805,186.848953 185.595596,191.611847 
	C183.322662,195.855194 182.564819,200.551956 179.491714,204.824051 
	C175.942642,209.757843 171.662079,215.114288 171.634583,222.252289 
	C171.627243,224.158218 168.389053,226.074112 166.591370,227.944321 
	C164.845230,229.760941 162.190659,231.230316 161.450729,233.375107 
	C160.050323,237.434357 159.735367,241.868057 158.969421,246.146179 
z"/>
<path fill="#195FF7" opacity="1.000000" stroke="none" 
	d="
M423.915985,175.091110 
	C423.915985,175.091110 423.845276,175.510529 423.636383,175.890594 
	C423.244781,176.511398 423.095978,176.771515 422.981079,177.051025 
	C422.981079,177.051025 422.975281,176.981201 422.774597,177.091232 
	C422.377319,177.481964 422.180756,177.762680 421.984192,178.043396 
	C421.984192,178.043396 421.979156,177.975800 421.798584,178.181305 
	C421.402130,178.936386 421.186279,179.485977 420.970398,180.035568 
	C420.970398,180.035568 420.956665,179.970322 420.756622,180.105072 
	C420.344635,180.530350 420.132721,180.820892 419.920776,181.111420 
	C419.920776,181.111420 419.853027,181.525848 419.525513,181.899292 
	C418.801910,183.197388 418.405853,184.122070 418.009796,185.046753 
	C418.009796,185.046753 417.989655,184.994949 417.715759,185.058380 
	C416.944061,185.725769 416.446259,186.329727 415.948486,186.933685 
	C415.948486,186.933701 415.996704,186.996475 415.652527,187.066116 
	C414.540863,188.115448 413.773438,189.095123 413.005981,190.074814 
	C412.220245,191.951569 411.689270,193.992798 410.602966,195.675491 
	C406.701691,201.718521 402.927856,207.886871 398.506836,213.539352 
	C394.000305,219.301132 388.820496,224.540634 383.875519,229.954086 
	C378.038086,236.344620 372.144836,242.684265 366.256165,249.027786 
	C364.897797,250.491074 363.370117,251.803894 362.076691,253.319382 
	C359.269135,256.608856 356.648499,260.060547 353.785339,263.299042 
	C351.767090,265.581909 349.455353,267.603210 347.312805,269.778870 
	C345.714752,271.401642 344.377502,273.353333 342.576904,274.691315 
	C336.693817,279.062805 332.918579,285.212463 328.349243,290.710938 
	C327.060974,292.261230 324.564972,292.807861 322.367737,293.947144 
	C322.503937,298.936676 317.285736,301.196503 314.052124,302.379150 
	C308.604980,304.371368 304.877930,307.799133 300.858948,311.411957 
	C297.094330,314.796143 292.925201,317.728821 288.957092,320.889038 
	C287.800781,321.809937 286.239319,322.613434 285.690674,323.840515 
	C282.796753,330.313263 276.902008,333.297058 271.383728,336.794373 
	C270.384705,337.427490 269.676636,338.555664 268.916748,339.520294 
	C268.118317,340.533813 267.590607,341.818787 266.650208,342.653412 
	C255.529190,352.523071 243.904953,361.929565 230.226166,367.805328 
	C224.085373,370.443146 216.542191,369.618256 209.804123,371.121185 
	C203.496078,372.528107 197.936203,372.118835 192.991486,367.763916 
	C192.462753,367.298279 192.259018,366.463562 191.769821,365.547943 
	C202.319870,365.222626 206.551941,356.913391 211.923462,350.334167 
	C214.868927,346.726501 216.943634,342.409515 219.437286,338.428864 
	C219.692337,338.021698 220.066315,337.579651 220.489182,337.403137 
	C228.955505,333.869598 231.081451,325.455902 235.302826,318.556732 
	C243.366699,305.377655 251.965836,292.526825 260.083801,279.379852 
	C266.499390,268.989899 272.388031,258.275299 278.765106,247.860672 
	C285.612122,236.678665 292.938080,225.788101 299.700775,214.556992 
	C303.596466,208.087219 306.472565,201.000168 310.415497,194.563324 
	C312.948090,190.428894 316.643829,187.017410 319.690643,183.180618 
	C320.499786,182.161652 320.574646,180.516006 321.450439,179.603073 
	C323.022522,177.964417 324.945923,176.662827 325.663696,175.121704 
	C326.081940,172.661621 325.912079,169.883408 327.036285,167.805222 
	C329.680237,162.917618 333.357605,158.570969 335.824768,153.611435 
	C337.860504,149.519196 338.774597,144.866257 340.146423,140.449570 
	C340.340118,139.825867 340.055481,138.877029 340.422943,138.510818 
	C344.815002,134.133728 346.022156,128.466171 347.368225,122.728264 
	C347.785858,120.947937 350.392426,119.740814 351.002838,117.935226 
	C353.145447,111.597336 356.337311,105.159775 350.608673,98.779579 
	C349.755737,97.829620 350.490021,95.454544 350.490021,93.371834 
	C349.829468,92.782997 348.757355,91.827248 347.247864,90.481636 
	C354.621399,85.671783 348.195984,79.962814 348.190063,73.691086 
	C353.865265,76.106590 359.555328,77.323700 363.611755,80.577438 
	C368.101868,84.179047 373.292664,85.627106 378.035522,88.259460 
	C383.584717,91.339371 388.504486,95.531410 393.907928,98.903557 
	C397.502258,101.146667 401.465332,102.798904 405.839203,105.006226 
	C404.712067,110.131531 407.504089,112.765106 412.916565,115.106361 
	C416.598572,116.699059 419.596130,121.277092 416.917358,126.525665 
	C426.784546,126.608025 426.784546,126.608025 427.699310,129.167908 
	C425.459320,130.210693 423.231598,131.247757 421.170441,132.959579 
	C423.569824,134.086624 425.802643,134.538895 428.035492,134.991180 
	C428.035492,134.991180 427.990570,135.010910 428.100220,135.219360 
	C428.485901,135.619247 428.761902,135.810699 429.037903,136.002151 
	C429.037903,136.002151 428.986053,136.012253 429.094086,136.222366 
	C429.478882,136.622940 429.755676,136.813416 430.032440,137.003891 
	C430.032440,137.003891 429.986389,137.013794 430.064148,137.248230 
	C430.355347,137.767502 430.568817,138.052368 430.782288,138.337219 
	C430.782288,138.337219 430.915039,138.572403 430.993408,138.982758 
	C431.290100,139.705353 431.508423,140.017593 431.726746,140.329834 
	C431.782166,140.658051 431.837555,140.986252 431.797058,141.912781 
	C431.126160,150.682037 430.551208,158.852997 429.976257,167.023941 
	C429.976227,167.023941 429.962158,166.966675 429.744751,167.101379 
	C429.319824,167.546051 429.112244,167.855988 428.904694,168.165939 
	C428.904694,168.165939 428.873474,168.502808 428.651855,168.844543 
	C428.234558,169.441010 428.086121,169.720810 427.984955,170.025650 
	C427.984955,170.025650 427.971649,169.977692 427.756470,170.076218 
	C427.354065,170.457199 427.166809,170.739670 426.979553,171.022125 
	C426.979553,171.022125 426.977051,170.970963 426.696472,171.101013 
	C425.940155,172.172394 425.464386,173.113708 424.988586,174.055023 
	C424.988617,174.055038 424.982635,173.984268 424.783936,174.116745 
	C424.362152,174.529846 424.139069,174.810486 423.915985,175.091110 
z"/>
<path fill="#195FF7" opacity="1.000000" stroke="none" 
	d="
M270.391144,381.414764 
	C278.462250,380.482971 286.192719,380.134064 293.793396,378.951294 
	C303.918884,377.375610 313.911926,374.962616 324.022736,373.273804 
	C330.449554,372.200348 337.094360,372.292358 343.444275,370.937622 
	C349.713837,369.600037 355.702057,366.988495 361.874451,365.138611 
	C368.851318,363.047577 375.557434,360.487518 383.063873,359.653259 
	C390.372864,358.840973 397.479706,355.205719 404.399445,352.179199 
	C411.249390,349.183258 418.158203,345.997009 424.324799,341.833191 
	C436.081726,333.894745 447.292328,325.150513 458.813568,316.857239 
	C461.700714,314.778992 464.906189,313.143066 467.965363,311.303833 
	C468.346252,311.789673 468.727173,312.275482 469.108093,312.761322 
	C467.433838,315.271088 465.704071,317.745911 464.096527,320.297699 
	C460.393463,326.175934 458.475250,332.376587 457.543854,339.492310 
	C456.494324,347.510468 452.764954,355.228790 449.824371,362.933746 
	C447.051025,370.200470 444.147156,377.464142 440.609192,384.375214 
	C438.395996,388.698364 435.160065,392.591583 431.927155,396.277924 
	C426.571320,402.384918 420.462799,407.858368 415.369598,414.162811 
	C407.738739,423.608337 398.659088,429.892700 386.280945,431.057587 
	C380.297333,431.620636 374.230255,432.335327 368.462280,433.927856 
	C357.590332,436.929504 346.817017,439.961395 335.357086,438.929565 
	C330.246826,438.469513 325.104431,438.351959 320.000031,437.843933 
	C311.169495,436.965027 302.349060,435.969513 293.539703,434.897339 
	C286.013245,433.981323 278.290955,433.674866 271.049835,431.672150 
	C262.369568,429.271423 254.114319,425.340485 245.663177,422.103119 
	C238.418289,419.327789 231.143066,416.630981 223.914963,413.812988 
	C222.599884,413.300262 221.187027,412.609161 220.260437,411.596680 
	C212.350891,402.954315 202.685272,396.531799 193.146240,389.952087 
	C189.119904,387.174805 184.899521,384.675507 180.912491,381.845337 
	C174.745102,377.467438 173.364853,370.343872 170.987717,363.827820 
	C170.241837,361.783295 169.696060,359.665802 169.997879,356.882385 
	C172.694550,358.816833 175.897446,360.318512 177.991699,362.768005 
	C183.951523,369.738739 192.249619,372.503357 200.120300,376.149017 
	C210.066986,380.756195 220.930420,380.688110 231.430496,381.838867 
	C239.750366,382.750763 248.312622,381.317627 256.771729,381.147827 
	C261.173737,381.059448 265.585388,381.451416 270.391144,381.414764 
z"/>
<path fill="#2D63CF" opacity="1.000000" stroke="none" 
	d="
M159.291641,246.001953 
	C159.735367,241.868057 160.050323,237.434357 161.450729,233.375107 
	C162.190659,231.230316 164.845230,229.760941 166.591370,227.944321 
	C168.389053,226.074112 171.627243,224.158218 171.634583,222.252289 
	C171.662079,215.114288 175.942642,209.757843 179.491714,204.824051 
	C182.564819,200.551956 183.322662,195.855194 185.595596,191.611847 
	C188.146805,186.848953 191.506561,182.523636 194.144257,177.801132 
	C196.135162,174.236588 197.579926,170.361511 199.126923,166.567230 
	C199.227036,166.321686 198.117798,165.583084 197.259918,165.010864 
	C199.361710,158.501129 201.075439,157.329819 205.049225,159.044266 
	C203.321808,163.451965 201.909744,168.005646 199.788162,172.200485 
	C197.679001,176.370728 195.274765,180.542419 192.235504,184.051361 
	C188.849655,187.960464 186.324677,191.637634 186.706848,197.201904 
	C186.840912,199.153946 184.337006,201.255859 183.120956,203.337982 
	C179.939377,208.785507 176.769318,214.240631 173.688934,219.745468 
	C173.254074,220.522598 173.070969,221.648438 173.241821,222.520706 
	C173.980804,226.293594 172.315796,228.205002 168.783066,229.115173 
	C165.184158,230.042389 162.380463,231.787964 163.181183,236.612427 
	C164.201996,236.716034 165.305634,236.828033 166.638214,236.963287 
	C164.121323,240.150269 161.867584,243.003998 159.291641,246.001953 
z"/>
<path fill="#2D63CF" opacity="1.000000" stroke="none" 
	d="
M101.994705,392.541504 
	C101.392532,392.090210 100.185440,391.191986 100.203468,390.319000 
	C100.319305,384.709747 100.529373,379.089630 101.054878,373.505676 
	C101.473297,369.059509 102.023178,364.566010 103.141083,360.256012 
	C107.372742,343.941254 111.810242,327.678955 116.328606,311.440948 
	C116.770096,309.854309 118.297485,308.569794 119.672394,307.068359 
	C115.483696,321.349274 109.943123,335.487640 106.732231,350.136688 
	C104.334999,361.073547 101.158600,372.241150 102.768127,383.844849 
	C103.137787,386.509857 102.260010,389.347839 101.994705,392.541504 
z"/>
<path fill="#2E64D1" opacity="1.000000" stroke="none" 
	d="
M208.928802,135.727295 
	C205.009491,131.744904 205.076126,130.698929 209.761169,126.655190 
	C203.582703,122.362221 209.341492,119.267921 210.969116,115.279388 
	C212.509705,115.584663 213.957825,116.243073 216.114807,117.223778 
	C213.528900,119.427658 211.314133,121.315231 209.099350,123.202797 
	C209.255600,123.490219 209.411850,123.777641 209.568100,124.065071 
	C212.055481,123.699173 214.542847,123.333282 217.058075,122.963287 
	C216.792343,125.086372 216.567749,126.880676 216.341721,128.686523 
	C207.617203,129.568649 207.617203,129.568649 208.928802,135.727295 
z"/>
<path fill="#2D63CF" opacity="1.000000" stroke="none" 
	d="
M138.354553,274.878235 
	C140.350143,270.529236 142.144699,265.662567 145.115311,261.671143 
	C149.011063,256.436676 153.834396,251.892487 158.549393,246.858765 
	C159.071594,250.153687 157.630478,252.417816 154.895660,254.862747 
	C148.495834,260.584198 142.574158,266.895142 138.354553,274.878235 
z"/>
<path fill="#2D63CF" opacity="1.000000" stroke="none" 
	d="
M75.929245,399.319580 
	C78.120979,400.269318 80.318359,401.691345 82.644638,402.855865 
	C86.385597,404.728577 90.238960,406.376770 93.979652,408.249939 
	C94.759811,408.640594 95.256569,409.597107 95.930145,410.660950 
	C94.071693,410.643341 92.162903,410.276642 90.264137,409.863800 
	C89.337891,409.662415 88.234482,409.624756 87.546745,409.085297 
	C83.639320,406.020477 79.833275,402.826416 75.929245,399.319580 
z"/>
<path fill="#2D63CF" opacity="1.000000" stroke="none" 
	d="
M191.714233,166.684052 
	C192.748566,163.422150 193.575455,160.072174 194.907196,156.936600 
	C195.546051,155.432404 197.139664,154.333725 198.660690,153.021484 
	C198.049164,156.950119 197.077850,160.908691 196.538208,164.900925 
	C195.962082,166.322556 194.954285,167.710526 193.532578,169.097870 
	C193.118652,169.097244 192.937012,168.923355 193.110870,168.539276 
	C192.883606,167.800156 192.482483,167.445099 191.989517,166.988617 
	C191.897675,166.887161 191.714249,166.684052 191.714233,166.684052 
z"/>
<path fill="#2D63CF" opacity="1.000000" stroke="none" 
	d="
M199.365677,152.993378 
	C204.632385,149.413910 207.621887,144.098419 208.961884,137.292419 
	C209.745377,136.793854 210.446213,136.670044 211.335007,136.513046 
	C208.667862,143.134384 209.735519,151.981445 199.365677,152.993378 
z"/>
<path fill="#4575D8" opacity="1.000000" stroke="none" 
	d="
M430.307434,166.840912 
	C430.551208,158.852997 431.126160,150.682037 431.805847,142.163345 
	C433.762970,150.212906 434.118683,158.533585 430.307434,166.840912 
z"/>
<path fill="#2D63CF" opacity="1.000000" stroke="none" 
	d="
M43.999268,364.398743 
	C44.483932,364.392395 45.359428,364.743896 45.424973,365.209412 
	C46.156864,370.407867 49.263161,374.121033 52.813370,377.635590 
	C53.450153,378.265991 53.590523,379.397797 53.962563,380.657532 
	C48.346767,377.027405 44.095722,372.198425 43.999268,364.398743 
z"/>
<path fill="#2D63CF" opacity="1.000000" stroke="none" 
	d="
M60.943962,388.403198 
	C65.542801,391.180054 70.171165,394.333374 74.912094,397.813751 
	C69.638672,396.074554 62.629364,396.444946 60.943962,388.403198 
z"/>
<path fill="#2D63CF" opacity="1.000000" stroke="none" 
	d="
M97.093018,412.370605 
	C97.791924,412.085114 98.726074,411.869476 99.381866,412.202301 
	C104.350136,414.723907 105.772102,412.183075 105.976196,407.355469 
	C110.873222,410.146210 106.522415,412.681519 105.169670,415.061340 
	C103.559990,417.893188 101.699081,415.919250 100.047485,414.564423 
	C99.174339,413.848175 98.153496,413.311951 97.093018,412.370605 
z"/>
<path fill="#2D63CF" opacity="1.000000" stroke="none" 
	d="
M37.096394,347.401733 
	C39.447762,352.427582 41.722214,357.831696 44.003059,363.625732 
	C41.679462,358.603729 39.349472,353.191864 37.096394,347.401733 
z"/>
<path fill="#2D63CF" opacity="1.000000" stroke="none" 
	d="
M124.359535,299.912079 
	C126.464264,295.397369 128.901413,290.786652 131.666779,286.080750 
	C129.560654,290.595703 127.126305,295.205902 124.359535,299.912079 
z"/>
<path fill="#2D63CF" opacity="1.000000" stroke="none" 
	d="
M132.308777,285.854004 
	C133.442383,282.728668 134.900604,279.460480 136.700562,276.115112 
	C135.572662,279.262390 134.103043,282.486755 132.308777,285.854004 
z"/>
<path fill="#2D63CF" opacity="1.000000" stroke="none" 
	d="
M54.961472,382.405945 
	C56.889343,383.843628 58.824318,385.645264 60.867317,387.765533 
	C58.973087,386.312714 56.970829,384.541321 54.961472,382.405945 
z"/>
<path fill="#2D63CF" opacity="1.000000" stroke="none" 
	d="
M120.321640,306.906799 
	C121.110619,304.749939 122.230980,302.480255 123.681030,300.116394 
	C122.891495,302.279480 121.772263,304.536713 120.321640,306.906799 
z"/>
<path fill="#4575D8" opacity="1.000000" stroke="none" 
	d="
M427.887085,134.631943 
	C425.802643,134.538895 423.569824,134.086624 421.208832,133.358047 
	C423.300018,133.478745 425.519318,133.875732 427.887085,134.631943 
z"/>
<path fill="#2D63CF" opacity="1.000000" stroke="none" 
	d="
M104.021645,398.619019 
	C103.341461,397.258728 102.655098,395.514374 102.002243,393.372986 
	C102.695656,394.728943 103.355568,396.481964 104.021645,398.619019 
z"/>
<path fill="#4575D8" opacity="1.000000" stroke="none" 
	d="
M413.348328,190.008835 
	C413.773438,189.095123 414.540863,188.115448 415.621826,187.041107 
	C415.187134,187.945267 414.438904,188.944061 413.348328,190.008835 
z"/>
<path fill="#2D63CF" opacity="1.000000" stroke="none" 
	d="
M104.872131,404.660400 
	C104.515831,403.297729 104.238152,401.529724 103.982750,399.367554 
	C104.320267,400.733978 104.635513,402.494537 104.872131,404.660400 
z"/>
<path fill="#4575D8" opacity="1.000000" stroke="none" 
	d="
M418.318542,184.922577 
	C418.405853,184.122070 418.801910,183.197388 419.461304,182.099213 
	C419.358887,182.883270 418.993073,183.840851 418.318542,184.922577 
z"/>
<path fill="#4575D8" opacity="1.000000" stroke="none" 
	d="
M425.289917,173.925018 
	C425.464386,173.113708 425.940155,172.172394 426.721161,171.107849 
	C426.548004,171.921417 426.069611,172.858215 425.289917,173.925018 
z"/>
<path fill="#4575D8" opacity="1.000000" stroke="none" 
	d="
M416.243286,186.860214 
	C416.446259,186.329727 416.944061,185.725769 417.743469,185.060730 
	C417.542755,185.595352 417.040436,186.191055 416.243286,186.860214 
z"/>
<path fill="#4575D8" opacity="1.000000" stroke="none" 
	d="
M421.254333,179.899826 
	C421.186279,179.485977 421.402130,178.936386 421.832458,178.180969 
	C421.877350,178.571457 421.707794,179.167770 421.254333,179.899826 
z"/>
<path fill="#4575D8" opacity="1.000000" stroke="none" 
	d="
M422.261719,177.988449 
	C422.180756,177.762680 422.377319,177.481964 422.809509,177.088562 
	C422.876495,177.295074 422.707886,177.614288 422.261719,177.988449 
z"/>
<path fill="#4575D8" opacity="1.000000" stroke="none" 
	d="
M423.227905,176.954102 
	C423.095978,176.771515 423.244781,176.511398 423.567413,176.091766 
	C423.629791,176.227661 423.552277,176.542419 423.227905,176.954102 
z"/>
<path fill="#4575D8" opacity="1.000000" stroke="none" 
	d="
M430.836304,138.027802 
	C430.568817,138.052368 430.355347,137.767502 430.070435,137.225540 
	C430.296082,137.218414 430.593170,137.468399 430.836304,138.027802 
z"/>
<path fill="#4575D8" opacity="1.000000" stroke="none" 
	d="
M428.982178,135.732269 
	C428.761902,135.810699 428.485901,135.619247 428.103210,135.195007 
	C428.306519,135.128937 428.616455,135.295670 428.982178,135.732269 
z"/>
<path fill="#4575D8" opacity="1.000000" stroke="none" 
	d="
M424.198120,175.016479 
	C424.139069,174.810486 424.362152,174.529846 424.819305,174.113647 
	C424.862335,174.299316 424.671295,174.620590 424.198120,175.016479 
z"/>
<path fill="#2D63CF" opacity="1.000000" stroke="none" 
	d="
M54.026276,381.286438 
	C54.303341,381.125885 54.565071,381.315887 54.865116,381.818878 
	C54.670853,381.877472 54.373360,381.712494 54.026276,381.286438 
z"/>
<path fill="#4575D8" opacity="1.000000" stroke="none" 
	d="
M427.256287,170.976318 
	C427.166809,170.739670 427.354065,170.457199 427.781311,170.077637 
	C427.858551,170.297180 427.695770,170.613831 427.256287,170.976318 
z"/>
<path fill="#4575D8" opacity="1.000000" stroke="none" 
	d="
M428.242462,169.925293 
	C428.086121,169.720810 428.234558,169.441010 428.583130,168.999115 
	C428.657349,169.149612 428.578644,169.487274 428.242462,169.925293 
z"/>
<path fill="#2D63CF" opacity="1.000000" stroke="none" 
	d="
M137.292633,275.988953 
	C137.119980,275.712616 137.301926,275.447021 137.795013,275.135193 
	C137.861511,275.329742 137.708542,275.633331 137.292633,275.988953 
z"/>
<path fill="#4575D8" opacity="1.000000" stroke="none" 
	d="
M431.788513,140.004242 
	C431.508423,140.017593 431.290100,139.705353 430.985565,139.117554 
	C431.216339,139.120880 431.533325,139.399780 431.788513,140.004242 
z"/>
<path fill="#4575D8" opacity="1.000000" stroke="none" 
	d="
M429.970032,136.740112 
	C429.755676,136.813416 429.478882,136.622940 429.100555,136.196762 
	C429.301849,136.132812 429.604736,136.304581 429.970032,136.740112 
z"/>
<path fill="#2D63CF" opacity="1.000000" stroke="none" 
	d="
M105.965454,406.739685 
	C105.766266,406.787292 105.501099,406.567413 105.117325,406.114502 
	C105.298973,406.078369 105.599228,406.275299 105.965454,406.739685 
z"/>
<path fill="#4575D8" opacity="1.000000" stroke="none" 
	d="
M429.184143,168.062012 
	C429.112244,167.855988 429.319824,167.546051 429.774231,167.100616 
	C429.835266,167.296112 429.649414,167.627106 429.184143,168.062012 
z"/>
<path fill="#2D63CF" opacity="1.000000" stroke="none" 
	d="
M96.014954,411.276276 
	C96.297005,411.103455 96.562408,411.288818 96.862610,411.794800 
	C96.664619,411.859253 96.364922,411.698914 96.014954,411.276276 
z"/>
<path fill="#4575D8" opacity="1.000000" stroke="none" 
	d="
M420.204132,181.030624 
	C420.132721,180.820892 420.344635,180.530350 420.789673,180.100739 
	C420.844360,180.291061 420.665924,180.620438 420.204132,181.030624 
z"/>
<path fill="#2D63CF" opacity="1.000000" stroke="none" 
	d="
M193.209915,169.183731 
	C192.526062,169.490677 191.750946,169.711151 190.975815,169.931610 
	C191.066895,168.973557 191.157974,168.015488 191.481659,166.870743 
	C191.714249,166.684052 191.897675,166.887161 191.961319,167.281219 
	C192.328979,168.091293 192.632996,168.507324 192.937012,168.923355 
	C192.937012,168.923355 193.118652,169.097244 193.209915,169.183731 
z"/>
<path fill="#000000" opacity="1.000000" stroke="none" 
	d="
M193.110870,168.539276 
	C192.632996,168.507324 192.328979,168.091293 192.053162,167.382660 
	C192.482483,167.445099 192.883606,167.800156 193.110870,168.539276 
z"/>
</svg>